<svg xmlns="http://www.w3.org/2000/svg" class="svg-logo-mp" viewBox="0 0 275.67 74.15" width="160" height="42">
    <style>
        .svg-logo-mp .cls-1{fill:#007f48}.svg-logo-mp .cls-2{fill:#8dc26a}.svg-logo-mp .cls-3{fill:#2cad6e}
    </style>
    <g id="Leaf">
        <path class="cls-1" d="M170.24 28.4A39.2 39.2 0 0 0 156.05 0v36.59z"/>
        <path class="cls-2" d="M156.05 38.59V60.8a39.33 39.33 0 0 0 14.24-30.43z"/>
        <path class="cls-1" d="M141.42 40.74a39 39 0 0 0 12.9 20.06V48.19z"/>
        <path class="cls-3" d="M154.32 12.1V0a35 35 0 0 0-7.26 7.91z"/>
        <path class="cls-2" d="M154.32 46.18V14.1l-8.22-4.74a39.16 39.16 0 0 0-6 21 39.81 39.81 0 0 0 .8 8z"/>
        <path class="cls-3" d="M154.32 60.8h1.73v13.35h-1.73z"/>
    </g>
    <path id="MoneyPark" d="M94.05 38.68h8.61v-4.25h-8.61v-4.91h10.28v-4.26H88.85v22.92H105v-4.26H94.05zm-52-13.91c-3.45 0-6.09 1-7.94 3.08s-2.76 5-2.76 8.87q0 11.94 10.67 12c3.45 0 6.09-1 7.94-3.08s2.76-5 2.76-8.87q.04-12-10.63-12zm3.82 17.51a4.35 4.35 0 0 1-3.85 1.84 4.3 4.3 0 0 1-3.81-1.84A9.87 9.87 0 0 1 37 36.72a9.93 9.93 0 0 1 1.26-5.57 4.31 4.31 0 0 1 3.81-1.83 4.36 4.36 0 0 1 3.85 1.83 9.93 9.93 0 0 1 1.26 5.57 9.87 9.87 0 0 1-1.27 5.56zM12.5 36l-7-10.77H0l1.5 2.12v20.8h5V34.46l6 9.26L18.79 34v14.18h4.94V25.26h-4.16zm62.23 2.85L65 25.26h-5.85l1.51 2.13v20.79h4.94V34.3l10 13.88h4.12V25.26h-4.99zm46.27-4.1l-4.42-9.49h-6.12l7.69 14v8.88h5.44v-9.03l7.85-13.85h-6zm69.7-9.49H182v22.92h5.2v-8h3.51a8.53 8.53 0 0 0 6-1.94 7.06 7.06 0 0 0 2.11-5.5q-.08-7.47-8.16-7.48zm1.94 9.87a4 4 0 0 1-2.7.77h-2.75v-6.38h2.75a4 4 0 0 1 2.7.77 3.08 3.08 0 0 1 .87 2.43 3 3 0 0 1-.91 2.41zm75.13.78L275 25.27h-5.89l-6.81 10.51 7.05 12.4h6.32zm-12 12.27H261V25.27h-5.3zm-9.63-11.73a7.39 7.39 0 0 0 1-3.92q0-7.26-8.09-7.26h-8.95v22.91h5.2V29.52h2.92a4 4 0 0 1 2.7.77 3.07 3.07 0 0 1 .87 2.41 3 3 0 0 1-.87 2.34 4 4 0 0 1-2.7.77H236l7.14 12.37h6.22l-6.12-9.26a6.28 6.28 0 0 0 2.83-2.47zm-36.76-11.19l.78 2.26-8.6 20.66h5.56l1.41-4h8.25l1.4 4h5.67l-9.36-22.92zm.52 14.93l2.75-7.79 2.72 7.79z" fill="#1d1d1b"/>
</svg>
